<svg width="32" height="33" viewBox="0 0 32 33" fill="none" xmlns="http://www.w3.org/2000/svg">
<path d="M13.5375 15.0639C13.5375 15.0639 15.5869 15.6649 15.5869 18.2164V31.3344C15.5869 31.3344 15.4495 32.7276 14.1858 31.9353L2.39507 24.3793C2.39507 24.3793 0.807223 23.4996 0.856672 20.8116L0.345703 9.26709C0.345703 9.26709 0.532509 8.01594 1.74675 8.61693L13.543 15.0584L13.5375 15.0639Z" fill="#5E2F00"/>
<path d="M18.5264 15.0639C18.5264 15.0639 16.4771 15.6649 16.4771 18.2164V31.3344C16.4771 31.3344 16.6144 32.7276 17.8781 31.9353L29.6743 24.3793C29.6743 24.3793 31.2622 23.4996 31.2127 20.8116L31.7237 9.26709C31.7237 9.26709 31.5369 8.01594 30.3227 8.61693L18.5264 15.0584V15.0639Z" fill="#5E2F00"/>
<path d="M15.0318 14.8783C15.0318 14.8783 15.5428 15.4793 16.5263 15.1569L29.9049 7.6937C29.9049 7.6937 30.3719 7.22929 29.9983 6.90694L24.026 0.367078C24.026 0.367078 23.559 0.137609 22.9546 0.181317L7.33984 2.21922C7.33984 2.21922 6.0322 2.40498 6.64206 3.51954L15.0318 14.8783Z" fill="#805808"/>
<path d="M3.87868 19.5987C3.87868 19.5987 4.3347 18.3203 4.41712 17.987C4.41712 17.987 4.46107 17.4078 3.96109 17.6592C3.96109 17.6592 1.59305 18.5279 2.5106 22.0737C2.5106 22.0737 2.92817 23.5161 4.83468 23.3959C4.83468 23.3959 5.29071 23.232 4.9171 22.8605C4.9171 22.8605 3.42265 21.8716 3.87868 19.5987Z" fill="white"/>
<path d="M10.516 17.3695C11.1368 16.2986 9.14789 16.5827 9.14789 16.5827C7.37324 16.9597 6.5381 18.1071 6.19196 18.7572C6.09856 18.5605 5.99417 18.3584 5.8678 18.1508C5.8678 18.1508 5.32936 17.3258 4.70851 18.3966C4.70851 18.3966 3.4613 20.4618 4.75246 22.1501C4.75246 22.1501 5.74693 23.5105 6.45569 22.0244C6.45569 22.0244 6.70293 21.6201 6.71392 20.8771C8.09848 17.9978 10.5215 17.364 10.5215 17.364L10.516 17.3695Z" fill="white"/>
<path d="M12.5925 19.6806C12.5925 19.6806 13.0925 19.3091 13.2957 19.0633C13.2957 19.0633 13.5045 18.4841 12.8782 18.4841C12.8782 18.4841 11.9441 18.4459 11.0431 19.107C11.2244 18.6699 11.3013 18.3639 11.3013 18.3639C11.4277 17.2111 10.4717 17.7028 10.4717 17.7028C8.35638 18.6535 7.31796 20.6313 7.31796 20.6313C6.48832 21.7459 7.07071 22.0354 7.07071 22.0354C8.17507 22.2103 9.02119 21.8114 9.66402 21.2214C9.56512 21.571 9.48271 21.9644 9.43875 22.407C9.43875 22.407 9.31238 24.3465 10.7244 24.9257C10.7244 24.9257 11.4277 25.2535 11.5541 24.4722C11.5541 24.4722 10.5156 21.4181 12.5925 19.6861V19.6806Z" fill="white"/>
<path d="M13.7958 19.391C13.2134 19.2271 12.8398 19.8063 12.8398 19.8063C11.2629 21.418 11.9277 24.1389 11.9277 24.1389C12.9661 25.2971 13.7133 23.3521 13.7133 23.3521C14.7078 20.6258 13.7958 19.391 13.7958 19.391Z" fill="white"/>
</svg>
